<?xml version="1.0" encoding="UTF-8"?>
<svg xmlns="http://www.w3.org/2000/svg" xmlns:xlink="http://www.w3.org/1999/xlink" width="50pt" height="50pt" viewBox="0 0 50 50" version="1.1">
<g id="surface1">
<path style=" stroke:none;fill-rule:nonzero;fill:rgb(50.980392%,34.117647%,90.196078%);fill-opacity:1;" d="M 47.703125 10.175781 L 46.441406 10.175781 L 46.003906 9.742188 C 45.277344 9.011719 44.304688 8.609375 43.273438 8.609375 L 40.796875 8.609375 C 40.304688 8.609375 39.8125 8.496094 39.375 8.273438 L 33.9375 5.558594 C 33.578125 5.375 33.136719 5.523438 32.957031 5.886719 C 32.773438 6.246094 32.921875 6.6875 33.285156 6.867188 L 38.71875 9.585938 C 39.363281 9.90625 40.082031 10.074219 40.796875 10.074219 L 43.273438 10.074219 C 43.914062 10.074219 44.515625 10.324219 44.96875 10.777344 L 45.617188 11.425781 C 45.753906 11.566406 45.941406 11.640625 46.136719 11.640625 L 47.703125 11.640625 C 48.160156 11.640625 48.535156 12.015625 48.535156 12.476562 L 48.535156 13.308594 L 44.570312 13.308594 C 43.304688 13.308594 42.273438 14.339844 42.273438 15.605469 L 42.273438 15.65625 L 42.222656 15.65625 C 41.332031 15.65625 40.605469 14.933594 40.605469 14.039062 C 40.605469 13.636719 40.277344 13.308594 39.875 13.308594 C 39.46875 13.308594 39.140625 13.636719 39.140625 14.039062 C 39.140625 15.523438 40.195312 16.765625 41.597656 17.058594 C 41.042969 17.726562 40.707031 18.585938 40.707031 19.519531 C 40.707031 20.636719 40.886719 21.742188 41.238281 22.800781 L 43.894531 30.765625 C 44.277344 31.914062 43.984375 33.164062 43.125 34.019531 L 42.171875 34.972656 L 42.171875 33.609375 C 42.171875 33.207031 41.84375 32.878906 41.4375 32.878906 C 41.035156 32.878906 40.707031 33.207031 40.707031 33.609375 L 40.707031 37.011719 C 40.707031 37.652344 40.457031 38.253906 40.003906 38.707031 L 38.257812 40.453125 L 38.257812 35.960938 C 38.257812 35.554688 37.929688 35.226562 37.523438 35.226562 C 37.121094 35.226562 36.792969 35.554688 36.792969 35.960938 L 36.792969 37.574219 L 35.144531 37.574219 C 33.824219 37.574219 32.546875 37.101562 31.546875 36.246094 L 29.585938 34.5625 C 28.914062 33.988281 28.132812 33.542969 27.296875 33.257812 L 27.296875 32.828125 C 27.296875 32.425781 26.96875 32.097656 26.566406 32.097656 C 26.160156 32.097656 25.832031 32.425781 25.832031 32.828125 L 25.832031 40.078125 C 25.832031 40.527344 25.640625 40.953125 25.320312 41.257812 L 21.445312 33.890625 C 20.789062 32.652344 20.832031 31.195312 21.558594 29.996094 C 22.28125 28.796875 23.550781 28.082031 24.953125 28.082031 L 31.261719 28.082031 C 31.667969 28.082031 31.996094 27.753906 31.996094 27.347656 C 31.996094 27.160156 31.921875 26.988281 31.804688 26.859375 L 31.808594 26.859375 C 28.585938 23.28125 24.707031 22.1875 22.019531 21.898438 C 21.089844 21.800781 20.238281 21.785156 19.507812 21.8125 L 28.964844 14.027344 L 28.964844 18.773438 C 28.964844 20.445312 29.757812 22.054688 31.082031 23.078125 L 39.425781 29.496094 C 39.558594 29.597656 39.71875 29.648438 39.875 29.648438 C 40.09375 29.648438 40.308594 29.546875 40.453125 29.359375 C 40.699219 29.039062 40.640625 28.582031 40.320312 28.332031 L 37.476562 26.144531 L 37.476562 10.910156 C 37.476562 10.503906 37.148438 10.175781 36.742188 10.175781 C 36.339844 10.175781 36.011719 10.503906 36.011719 10.910156 L 36.011719 25.019531 L 31.976562 21.914062 C 31.007812 21.171875 30.429688 19.996094 30.429688 18.773438 L 30.429688 12.476562 C 30.429688 12.164062 30.234375 11.886719 29.941406 11.785156 L 0.976562 1.605469 C 0.625 1.484375 0.238281 1.640625 0.0742188 1.976562 C -0.0898438 2.308594 0.0234375 2.710938 0.335938 2.914062 C 0.417969 2.96875 8.589844 8.324219 9.519531 14.066406 L 9.257812 14.097656 C 8.859375 14.140625 8.570312 14.503906 8.617188 14.90625 C 8.660156 15.28125 8.976562 15.554688 9.34375 15.554688 C 9.371094 15.554688 9.398438 15.554688 9.425781 15.550781 L 10.460938 15.433594 C 15.714844 17.046875 16.28125 21.355469 16.335938 22.527344 L 15.921875 22.867188 C 15.609375 23.125 15.566406 23.585938 15.824219 23.898438 C 15.96875 24.074219 16.179688 24.167969 16.390625 24.167969 C 16.554688 24.167969 16.71875 24.113281 16.855469 24 L 17.441406 23.515625 C 18.566406 23.292969 24.554688 22.351562 29.472656 26.617188 L 20.304688 26.617188 C 15.582031 26.617188 11.742188 30.457031 11.742188 35.175781 L 11.742188 37.132812 C 11.742188 39.535156 9.789062 41.488281 7.386719 41.488281 C 4.984375 41.488281 3.03125 39.535156 3.03125 37.132812 L 3.03125 29.609375 C 3.03125 28.53125 2.773438 27.449219 2.292969 26.480469 L 1.386719 24.671875 C 1.207031 24.3125 0.765625 24.164062 0.40625 24.34375 C 0.0429688 24.527344 -0.101562 24.964844 0.078125 25.328125 L 0.980469 27.136719 C 1.363281 27.902344 1.566406 28.753906 1.566406 29.609375 L 1.566406 37.523438 C 1.566406 41.8125 5.054688 45.304688 9.34375 45.304688 C 13.632812 45.304688 17.121094 41.8125 17.121094 37.523438 L 17.121094 36.742188 C 17.121094 35.175781 18.257812 33.871094 19.75 33.609375 C 19.851562 33.9375 19.984375 34.261719 20.148438 34.574219 L 24.066406 42.023438 L 21.90625 43.257812 C 20.949219 43.804688 20.355469 44.832031 20.355469 45.933594 L 20.355469 46.96875 L 19.128906 46.96875 C 18.722656 46.96875 18.394531 47.296875 18.394531 47.703125 C 18.394531 48.105469 18.722656 48.433594 19.128906 48.433594 L 21.476562 48.433594 C 21.660156 48.433594 21.835938 48.367188 21.972656 48.242188 C 22.265625 47.972656 22.757812 47.652344 23.433594 47.652344 C 24.109375 47.652344 24.601562 47.972656 24.898438 48.242188 C 25.039062 48.371094 25.214844 48.433594 25.390625 48.433594 C 25.589844 48.433594 25.785156 48.355469 25.929688 48.195312 C 26.203125 47.898438 26.183594 47.433594 25.886719 47.160156 C 25.199219 46.53125 24.328125 46.1875 23.433594 46.1875 C 22.875 46.1875 22.320312 46.324219 21.820312 46.582031 L 21.820312 45.933594 C 21.820312 45.355469 22.128906 44.816406 22.632812 44.53125 L 25.746094 42.75 C 26.703125 42.203125 27.296875 41.179688 27.296875 40.078125 L 27.296875 34.832031 C 27.78125 35.046875 28.230469 35.332031 28.628906 35.675781 L 30.59375 37.355469 C 31.859375 38.441406 33.476562 39.039062 35.144531 39.039062 L 36.792969 39.039062 L 36.792969 46.96875 L 35.566406 46.96875 C 35.164062 46.96875 34.835938 47.296875 34.835938 47.703125 C 34.835938 48.105469 35.164062 48.433594 35.566406 48.433594 L 37.917969 48.433594 C 38.101562 48.433594 38.277344 48.367188 38.410156 48.242188 C 38.707031 47.972656 39.199219 47.652344 39.875 47.652344 C 40.550781 47.652344 41.042969 47.972656 41.335938 48.242188 C 41.476562 48.371094 41.652344 48.433594 41.832031 48.433594 C 42.027344 48.433594 42.226562 48.355469 42.371094 48.195312 C 42.644531 47.898438 42.625 47.433594 42.324219 47.160156 C 41.640625 46.53125 40.769531 46.1875 39.875 46.1875 C 39.3125 46.1875 38.761719 46.324219 38.257812 46.582031 L 38.257812 43.519531 C 38.257812 42.878906 38.507812 42.277344 38.960938 41.824219 L 41.039062 39.742188 C 41.761719 39.023438 42.160156 38.066406 42.171875 37.046875 L 44.160156 35.058594 C 45.414062 33.804688 45.84375 31.980469 45.285156 30.300781 L 42.628906 22.339844 C 42.324219 21.429688 42.171875 20.480469 42.171875 19.519531 C 42.171875 18.199219 43.25 17.121094 44.570312 17.121094 L 47.703125 17.121094 C 48.105469 17.121094 48.433594 16.792969 48.433594 16.390625 C 48.433594 15.984375 48.105469 15.65625 47.703125 15.65625 L 43.738281 15.65625 L 43.738281 15.605469 C 43.738281 15.148438 44.109375 14.773438 44.570312 14.773438 L 49.269531 14.773438 C 49.671875 14.773438 50 14.445312 50 14.039062 L 50 12.476562 C 50 11.207031 48.96875 10.175781 47.703125 10.175781 Z M 16.984375 19.160156 C 16.402344 17.871094 15.328125 16.285156 13.332031 15.101562 L 20.386719 14.285156 C 20.789062 14.238281 21.078125 13.875 21.03125 13.476562 C 20.984375 13.074219 20.621094 12.785156 20.21875 12.832031 L 10.976562 13.898438 C 10.402344 10.1875 7.324219 6.761719 4.757812 4.488281 L 26.453125 12.113281 L 23.351562 12.46875 C 22.949219 12.515625 22.660156 12.878906 22.707031 13.28125 C 22.75 13.65625 23.066406 13.929688 23.433594 13.929688 C 23.460938 13.929688 23.488281 13.929688 23.519531 13.925781 L 27.316406 13.488281 L 17.675781 21.425781 C 17.566406 20.789062 17.359375 19.996094 16.984375 19.160156 Z M 19.519531 32.164062 C 17.328125 32.539062 15.65625 34.449219 15.65625 36.742188 L 15.65625 37.523438 C 15.65625 41.007812 12.824219 43.839844 9.34375 43.839844 C 8.015625 43.839844 6.785156 43.425781 5.769531 42.726562 C 6.28125 42.875 6.824219 42.953125 7.386719 42.953125 C 10.597656 42.953125 13.207031 40.34375 13.207031 37.132812 L 13.207031 35.175781 C 13.207031 31.265625 16.390625 28.082031 20.304688 28.082031 L 21.238281 28.082031 C 20.882812 28.417969 20.566406 28.804688 20.304688 29.238281 C 19.757812 30.144531 19.496094 31.152344 19.519531 32.164062 Z M 19.519531 32.164062 "/>
<path style=" stroke:none;fill-rule:nonzero;fill:rgb(50.980392%,34.117647%,90.196078%);fill-opacity:1;" d="M 43.796875 10.960938 L 43.789062 10.960938 C 43.382812 10.960938 43.058594 11.289062 43.058594 11.691406 C 43.058594 12.097656 43.390625 12.425781 43.796875 12.425781 C 44.199219 12.425781 44.527344 12.097656 44.527344 11.691406 C 44.527344 11.289062 44.199219 10.960938 43.796875 10.960938 Z M 43.796875 10.960938 "/>
</g>
</svg>
